<svg id="_x31__x2C_5" enable-background="new 0 0 36 36" height="512" viewBox="0 0 36 36" width="512" xmlns="http://www.w3.org/2000/svg"><path d="m8.377 4.167c6.917 0 11.667-3.583 15-3.583s10.333 1.916 10.333 17.249-9.417 17.583-13.083 17.583c-17.167.001-24.5-31.249-12.25-31.249z" fill="#efefef"/><path d="m29.625 2.25h1v2h-1z" fill="#a4afc1"/><path d="m31.875 5.25h2v1h-2z" fill="#a4afc1"/><path d="m25.25 29.25h-14.5c-1.105 0-2-.895-2-2v-18.5c0-1.105.895-2 2-2h14.5c1.105 0 2 .895 2 2v18.5c0 1.105-.895 2-2 2z" fill="#f3f3f1"/><path d="m11 27.25v-18.5c0-1.105.895-2 2-2h-2.25c-1.105 0-2 .895-2 2v18.5c0 1.105.895 2 2 2h2.25c-1.105 0-2-.895-2-2z" fill="#d5dbe1"/><path d="m25.25 30h-14.5c-1.517 0-2.75-1.233-2.75-2.75v-4.25h1.5v4.25c0 .689.561 1.25 1.25 1.25h14.5c.689 0 1.25-.561 1.25-1.25v-4.25h1.5v4.25c0 1.517-1.233 2.75-2.75 2.75z"/><path d="m28 13h-1.5v-4.25c0-.689-.561-1.25-1.25-1.25h-14.5c-.689 0-1.25.561-1.25 1.25v4.25h-1.5v-4.25c0-1.517 1.233-2.75 2.75-2.75h14.5c1.517 0 2.75 1.233 2.75 2.75z"/><path d="m7 15h1.5v6h-1.5z"/><path d="m12.75 21c-.268 0-.521-.144-.655-.386l-1.095-1.969v2.355h-1.5v-5.25c0-.342.231-.64.562-.726.33-.084.679.063.844.362l1.094 1.969v-2.355h1.5v5.25c0 .342-.231.64-.562.726-.062.016-.125.024-.188.024z"/><path d="m16.75 21h-1.5c-.414 0-.75-.336-.75-.75v-4.5c0-.414.336-.75.75-.75h1.5c.965 0 1.75.785 1.75 1.75v2.5c0 .965-.785 1.75-1.75 1.75zm-.75-1.5h.75c.138 0 .25-.112.25-.25v-2.5c0-.138-.112-.25-.25-.25h-.75z"/><path d="m19.5 17.25h4v1.5h-4z"/><path d="m23.5 21h-2.25c-.965 0-1.75-.785-1.75-1.75v-2.5c0-.965.785-1.75 1.75-1.75h2.25v1.5h-2.25c-.138 0-.25.112-.25.25v2.5c0 .138.112.25.25.25h2.25z"/><path d="m25.75 14.892h1.5v6.217h-1.5z" transform="matrix(.848 -.53 .53 .848 -5.512 16.781)"/><path d="m23.392 17.25h6.217v1.5h-6.217z" transform="matrix(.53 -.848 .848 .53 -2.814 30.92)"/></svg>